<?xml version="1.0" encoding="utf-8"?>
<!-- Generator: Adobe Illustrator 24.2.0, SVG Export Plug-In . SVG Version: 6.00 Build 0)  -->
<svg version="1.1" id="Layer_1" xmlns="http://www.w3.org/2000/svg" xmlns:xlink="http://www.w3.org/1999/xlink" x="0px" y="0px"
	 viewBox="0 0 400 400" style="enable-background:new 0 0 400 400;" xml:space="preserve">
<style type="text/css">
	.st0{fill:#2C3E50;}
	.st1{fill:#E74C3C;}
	.st2{fill:none;stroke:#000000;stroke-miterlimit:10;}
	.st3{fill:none;stroke:#000000;stroke-width:0.5;stroke-linecap:round;stroke-linejoin:round;}
	.st4{fill:#FFFFFF;stroke:#000000;stroke-miterlimit:10;}
</style>
<g id="XMLID_1_">
	<g>
		<polygon class="st0" points="356.97,293.46 317.2,293.46 268.58,165.81 290.55,121.94 		"/>
		<polygon class="st1" points="291.21,120.63 290.55,121.94 290.04,120.6 		"/>
		<polygon class="st1" points="228.38,246.03 204.42,178.18 234.25,119.19 290.04,120.6 290.55,121.94 268.58,165.81 		"/>
		<polygon class="st1" points="183.48,219.61 204.42,178.18 228.38,246.03 208.22,286.27 207.85,286.07 		"/>
		<polygon class="st0" points="146.52,292.7 183.48,219.61 207.85,286.07 208.22,286.27 205.01,292.7 		"/>
		<polygon class="st0" points="182.78,217.7 161.47,159.59 182.88,117.24 204.42,178.18 183.48,219.61 		"/>
		<polygon class="st1" points="100.01,281.16 75.56,216.98 74.29,216.34 124.39,117.24 182.88,117.24 161.47,159.59 		"/>
		<polygon class="st0" points="95.15,290.75 36.67,290.75 74.29,216.34 75.56,216.98 100.01,281.16 		"/>
	</g>
	<g>
		<polygon class="st2" points="100.01,281.16 95.15,290.75 36.67,290.75 74.29,216.34 124.39,117.24 182.88,117.24 161.47,159.59 		
			"/>
		<polyline class="st3" points="161.2,158.86 161.47,159.59 182.78,217.7 		"/>
		<line class="st2" x1="228.38" y1="246.03" x2="228.69" y2="246.89"/>
		<line class="st2" x1="182.88" y1="117.24" x2="204.42" y2="178.18"/>
		<polyline class="st2" points="290.55,121.94 356.97,293.46 317.2,293.46 268.58,165.81 		"/>
		<line class="st2" x1="289.93" y1="120.3" x2="290.04" y2="120.6"/>
		<polygon class="st2" points="208.22,286.27 205.01,292.7 146.52,292.7 183.48,219.61 204.42,178.18 234.25,119.19 290.04,120.6 
			291.21,120.63 290.55,121.94 268.58,165.81 228.38,246.03 		"/>
	</g>
</g>
<path class="st4" d="M196.82,205.36"/>
</svg>
