<?xml version="1.0" encoding="utf-8"?>
<!-- Generator: Adobe Illustrator 24.1.0, SVG Export Plug-In . SVG Version: 6.00 Build 0)  -->
<svg version="1.1" id="Layer_1" xmlns="http://www.w3.org/2000/svg" xmlns:xlink="http://www.w3.org/1999/xlink" x="0px" y="0px"
	 viewBox="0 0 400 400" style="enable-background:new 0 0 400 400;" xml:space="preserve">
<style type="text/css">
	.st0{fill:#ECF0F1;}
	.st1{fill:#2C3E50;}
	.st2{fill:#E74C3C;}
	.st3{fill:none;stroke:#000000;stroke-miterlimit:10;}
	.st4{fill:none;stroke:#000000;stroke-width:0.5;stroke-linecap:round;stroke-linejoin:round;}
</style>
<g id="XMLID_1_">
	<g>
		<path class="st0" d="M346.51,199.9c0,9.08-0.88,17.95-2.54,26.55h-0.02l-0.37-0.08l-35.02-99.18l-57.08-1.43l-29.89,59.11
			l-21.59-61.06h-58.8L77.47,248.95c-5.8-15.26-8.97-31.78-8.97-49.05c0-76.54,62.24-138.6,139.01-138.6S346.51,123.37,346.51,199.9
			z"/>
		<path class="st1" d="M343.58,226.37l0.37,0.08c-3.24,16.76-9.53,32.45-18.26,46.45L288.5,167.38l-0.06-0.02l20.12-40.16
			L343.58,226.37z"/>
		<path class="st0" d="M245.6,252.86l42.84-85.5l0.06,0.02l37.19,105.52c-24.52,39.38-68.29,65.6-118.18,65.6
			c-38.83,0-73.96-15.88-99.18-41.49h3.48l66.67-130.94l22.13,60.32l-37.04,73.23h58.6l3.22-6.45L245.6,252.86z"/>
		<polygon class="st2" points="308.56,127.2 288.44,167.36 245.6,252.86 221.59,184.88 251.48,125.77 		"/>
		<polygon class="st2" points="221.59,184.88 245.6,252.86 225.4,293.18 225.03,292.98 200.61,226.39 		"/>
		<polygon class="st1" points="225.4,293.18 222.18,299.63 163.57,299.63 200.61,226.39 225.03,292.98 		"/>
		<polygon class="st1" points="221.59,184.88 200.61,226.39 178.48,166.07 200.01,123.82 		"/>
		<path class="st2" d="M178.48,166.07l-66.67,130.94h-3.48c-13.4-13.58-23.99-29.91-30.86-48.05l63.74-125.14h58.8L178.48,166.07z"
			/>
		<path class="st1" d="M108.33,297.01H52.99l24.48-48.05C84.34,267.1,94.93,283.43,108.33,297.01z"/>
	</g>
	<g>
		<path class="st3" d="M77.47,248.95c-5.8-15.26-8.97-31.78-8.97-49.05c0-76.54,62.24-138.6,139.01-138.6s139.01,62.06,139.01,138.6
			c0,9.08-0.88,17.95-2.54,26.55h-0.02c-3.24,16.76-9.53,32.45-18.26,46.45c-24.52,39.38-68.29,65.6-118.18,65.6
			c-38.83,0-73.96-15.88-99.18-41.49"/>
		<polygon class="st3" points="178.48,166.07 111.81,297.01 108.33,297.01 52.99,297.01 77.47,248.95 141.21,123.82 200.01,123.82 
					"/>
		<line class="st3" x1="343.58" y1="226.37" x2="308.56" y2="127.2"/>
		<polyline class="st4" points="178.28,165.52 178.48,166.07 200.61,226.39 225.03,292.98 		"/>
		<line class="st3" x1="245.6" y1="252.86" x2="245.91" y2="253.72"/>
		<line class="st3" x1="200.01" y1="123.82" x2="221.59" y2="184.88"/>
		<polyline class="st4" points="288.5,167.38 325.69,272.9 325.83,273.31 		"/>
		<polygon class="st3" points="225.4,293.18 222.18,299.63 163.57,299.63 200.61,226.39 221.59,184.88 251.48,125.77 308.56,127.2 
			288.44,167.36 245.6,252.86 		"/>
	</g>
</g>
</svg>
